<svg class="placeholder-svg" xmlns="http://www.w3.org/2000/svg" viewBox="0 0 525.5 525.5" fill="#949494"><path d="M401.7 288.4c-.7-.5-1.6-.5-2.4 0l-.3-.7c-2.6-5.8-7.1-10.1-12.8-12.2l-77.8-31.8-7.1-3.9 1.3-1.7c.2-.3.2-.8-.1-1-.3-.2-.8-.2-1 .1l-1.4 1.9-12-6.6.4-4.5c.1-.8-.5-1.5-1.3-1.5-.8-.1-1.5.5-1.5 1.3l-.1.9-1.4 1.7-13.4-7.4.4-4.3c.1-.8-.5-1.5-1.3-1.6-.8-.1-1.5.5-1.6 1.3l-.1 1-1.2 1.6-13.3-7.3.5-4.4c.1-.8-.5-1.5-1.2-1.6-.8-.1-1.5.5-1.6 1.2l-.4 3.2-17.7-9.8c-5.3-3.1-11.6-3.1-16.5.1-4.6 3-7 8.2-6.3 13.7l1.3 12.6c-8.3 6.5-17.7 10.1-27.2 10.1-8.8 0-17-2.3-24.5-6.7-5.9-3.5-11.1-8.2-15.4-14-2-2.6-5.1-4.9-7.7-4.3-.8.2-2.2.9-2.6 3.2v78l-3.7-.3c-2.5-.2-4.7 1.7-5.3 4.7l-2.3 15.5c-.4 2.2 0 4.4 1.3 6.1.9 1.2 2.2 2 3.7 2.1 19.4 1.2 58.1 2.5 101 2.5 32.5 0 67.4-.8 98.2-3 38.9-2.8 62.8-11.8 73.1-27.4.7-1.1 1.4-2.2 2-3.3.4-1.3.2-2.8-.7-3.5zm-94.5-42.2l.1.1 22 9c-12.2 2.2-24.9.5-36.1-4.9l6.4-8.3 7.6 4.1zm-8.8-4.8l-6.5 8.4-1.5-.7c-.7-.3-1.6-.1-1.9.6-.3.7-.1 1.6.6 1.9l.9.5-2.6 3.3c-.5-.3-1-.5-1.5-.6l1.8-19.2 10.7 5.8zm-12.7 16.3s.1 0 0 0zm-3.2-25.1l-7.2 9-2.7-1.3c-.7-.3-1.6-.1-1.9.6-.3.7-.1 1.6.6 1.9l2.1 1-3.6 4.5c-.5-.3-1-.5-1.5-.7l2.2-21.6 12 6.6zm-14.5 18c.1 0 .1 0 0 0zm-2.6-27.4l-7.4 9.9-2.5-1.2c-.7-.3-1.6-.1-1.9.6-.3.7-.1 1.6.6 1.9l2.1 1-4.3 5.8-1.2-.6 2.8-24 11.8 6.6zm-52-7.4c-.6-4.5 1.3-8.6 5-11 3.7-2.4 8.4-2.6 12.4-.6l-.3.6c-.2.4-.4.9-.6 1.3-.1.3-.3.5-.4.8-2.4 4.8-5.4 9.3-8.8 13.4-2 2.4-4.1 4.5-6.3 6.4l-1-10.9zm-76.1 2.3v-.5c.1-.4.2-.9.5-.9.8-.2 2.9.8 4.7 3.2 4.5 6.1 10 11 16.2 14.7 7.9 4.7 16.7 7.1 26 7.1 14 0 27.6-7 38.3-19.7 3.6-4.3 6.7-8.9 9.2-14 .1-.2.2-.4.3-.7.2-.5.5-1 .7-1.4.1-.1.1-.3.2-.4l17.4 9.6-2.9 25c-4.2.1-7.5 3.5-7.5 7.7 0 .8.1 1.6.4 2.4.2.7 1.1 1.1 1.8.9.7-.2 1.1-1.1.9-1.8-.2-.5-.2-1-.2-1.5 0-2.5 1.9-4.5 4.3-4.8l-.4 3.7c-.1.8.5 1.5 1.2 1.6h.2c.7 0 1.3-.5 1.4-1.3l.1-1 1.3-1.7c.9.9 1.5 2.1 1.5 3.5 0 2.7-2.2 4.8-4.8 4.8-.8 0-1.4.6-1.4 1.4 0 .8.6 1.4 1.4 1.4 4.2 0 7.7-3.4 7.7-7.7 0-2.3-1-4.4-2.7-5.8l4.5-6 5.8 2.9c.2.1.4.1.6.1.5 0 1-.3 1.3-.8.3-.7.1-1.6-.6-1.9l-5.3-2.6 7.4-9.9 1.1.6-2.3 22.8c-4 .2-7.2 3.6-7.2 7.7 0 .6.1 1.2.2 1.7.2.8.9 1.2 1.7 1.1.8-.2 1.2-.9 1.1-1.7-.1-.4-.1-.7-.1-1.1 0-2.4 1.8-4.4 4.1-4.8l-.4 3.7c-.1.8.5 1.5 1.3 1.6h.1c.7 0 1.3-.5 1.4-1.3l.1-.9 1.5-1.9c.9.9 1.5 2.1 1.5 3.5 0 2.7-2.2 4.8-4.8 4.8-.8 0-1.4.6-1.4 1.4s.6 1.4 1.4 1.4c4.2 0 7.7-3.4 7.7-7.7 0-2.3-1-4.3-2.6-5.8l3.7-4.7 5.9 2.9c.2.1.4.1.6.1.5 0 1-.3 1.3-.8.3-.7.1-1.6-.6-1.9l-5.3-2.6 7.1-9 1.4.8-1.9 20.4c-3.9.3-7 3.6-7 7.6 0 .8.1 1.6.4 2.3.2.7 1 1.2 1.8.9.7-.2 1.2-1 .9-1.8-.1-.5-.2-1-.2-1.5 0-2.4 1.7-4.3 3.9-4.7l-.4 3.7c-.1.8.5 1.5 1.3 1.5h.1c.7 0 1.3-.6 1.4-1.3l.1-.9 1.5-2c1 .9 1.7 2.2 1.7 3.6 0 2.7-2.2 4.8-4.8 4.8-.8 0-1.4.6-1.4 1.4s.6 1.4 1.4 1.4c4.2 0 7.7-3.4 7.7-7.7 0-2.4-1.1-4.5-2.8-5.9l2.7-3.5c8.6 4.2 17.9 6.3 27.4 6.3 4.8 0 9.5-.5 14.2-1.6.2-.1.4-.2.6-.4l51.6 21.1c4.2 1.5 7.6 4.5 10 8.4-2.5 2-10.2 7.5-24 11.9-.4.1-.6.5-.5.9.1.3.4.5.7.5h.2c13.8-4.4 21.4-9.8 24.2-12 .2.3.4.7.5 1l.6 1.4c-.6.4-1.2.9-1.8 1.3-30.8 22.3-83 18.6-133.5 14.9l-46.9-4.2c0-1.1-.1-2.2-.1-3.3 10 1.1 66 6.9 103.8 7.3.4 0 .7-.3.7-.7 0-.4-.3-.7-.7-.7-38.1-.5-94.7-6.4-103.9-7.3-1.4-14.1-7.8-29.6-14-38.7 14.6-3.2 28.2-11.3 38.4-23l5.4-6.2 1.2.6c.7.3 1.6.1 1.9-.6.3-.7.1-1.6-.6-1.9l-2.2-1.1c-.6-.3-1.3-.1-1.7.3l-6.1 7c-12.4 14.2-29.9 22.8-47.9 23.6-1 0-2 .1-3 .1-19.4 0-38.4-7.6-48.7-19.5v-19.8c-.2.7-.2.7-.2.6zm0 24.2c11.1 11.1 29.8 18.1 48.7 18.1 1.1 0 2.1 0 3.1-.1l3.9-.3c2.1 2.9 4.3 6.5 6.2 10.5.1.3.4.4.6.4.1 0 .2 0 .3-.1.4-.2.5-.6.3-.9-1.8-3.7-3.8-7.2-5.9-10.1 1-.1 2-.3 3-.5 0 .1.1.2.1.3 6.8 9.5 13.9 27.4 14.2 42.3l-3-.3v-.2c-.2-7.1-2.1-15.7-5.3-24.3-.1-.4-.6-.5-.9-.4-.4.1-.5.6-.4.9 3.2 8.4 5.1 16.8 5.2 23.8l-70.3-6.4v-52.7zm260.6 51.2c-9.8 14.9-33 23.5-70.9 26.2-71.5 5.1-164.8 2.5-198.8.5-.7 0-1.3-.5-1.6-.9-.7-1-1-2.4-.7-3.8l2.3-15.5c.3-1.4 1.2-2.3 2.2-2.3h.1L258 309.1l3.5.3c2 .1 4 .3 6 .4.6 0 1.2.1 1.8.1 2.2.2 4.3.3 6.5.5h.1c2.1.1 4.2.3 6.3.4.5 0 1.1.1 1.6.1 2.1.1 4.3.3 6.4.4l6.3.3c.5 0 1 0 1.6.1 4.2.2 8.4.3 12.6.4h1.5c2.1 0 4.1.1 6.2.1h6.8c1.2 0 2.4-.1 3.6-.1.6 0 1.2 0 1.8-.1 1.2 0 2.4-.1 3.6-.2.5 0 1.1-.1 1.6-.1 1.7-.1 3.3-.2 4.9-.3h.1c1.7-.1 3.3-.3 4.9-.5.5-.1 1-.1 1.5-.2 1.1-.1 2.3-.3 3.4-.4.6-.1 1.1-.2 1.7-.2 1.1-.2 2.2-.3 3.3-.5.5-.1 1-.2 1.5-.2 1.5-.3 3-.5 4.5-.9h.1c1.5-.3 3-.7 4.5-1 .5-.1.9-.2 1.4-.4 1-.3 2-.5 3-.8.5-.1 1-.3 1.5-.5 1-.3 2-.6 2.9-.9.4-.1.9-.3 1.3-.5 1.4-.5 2.7-1 4-1.5h.1c1.3-.5 2.6-1.1 3.9-1.7l1.2-.6c.9-.4 1.8-.9 2.7-1.3.4-.2.9-.5 1.3-.7.9-.5 1.7-1 2.5-1.5.4-.2.8-.5 1.1-.7 1.2-.8 2.4-1.5 3.5-2.3.4-.3.8-.6 1.3-.9.1-.1.2-.1.2-.2.1 0 0 .3-.2.5z"></path><path d="M192.5 315.8c-2.7-.1-5.3-.1-7.8-.2-.4 0-.7.3-.7.7 0 .4.3.7.7.7 2.6.1 5.2.1 7.8.2.4 0 .7-.3.7-.7 0-.4-.3-.7-.7-.7z"></path><path d="M227.2 312.5c-25.2-2.1-60.2-5.1-83.3-7.7-2.8-.3-5.4 1.7-5.8 4.5-.2 1.5.2 3 1.1 4.2.9 1.2 2.3 1.9 3.8 1.9 6.2.3 19 .9 34.5 1.4.4 0 .7-.3.7-.7 0-.4-.3-.7-.7-.7-15.5-.5-28.2-1.1-34.5-1.4-1.1-.1-2.1-.6-2.8-1.4-.7-.9-1-2-.8-3.1.3-2.1 2.2-3.5 4.3-3.3 23.2 2.6 58.1 5.6 83.4 7.7.4 0 .7-.3.8-.6 0-.5-.3-.8-.7-.8zm32.5 2.6s-10.3-.8-25.4-2c-.3 0-.7.3-.8.6 0 .4.3.7.6.8 15.1 1.2 25.4 2 25.4 2h.1c.4 0 .7-.3.7-.7.1-.3-.2-.7-.6-.7zm69.1-8.8c10.3-.2 20.1-1.2 29.1-3 .4-.1.6-.5.6-.8-.1-.4-.5-.6-.8-.6-8.9 1.8-18.6 2.8-28.8 3-.4 0-.7.3-.7.7-.1.4.2.7.6.7z"></path></svg>
